# xmcd CD database file
#
# Track frame offsets:
#	182
#	14520
#	27670
#	39795
#	55020
#	69945
#	83295
#	95882
#	109607
#	120970
#	133120
#	146132
#	159382
#	173395
#
# Disc length: 2482 seconds
#
# Revision: 6
# Processed by: cddbd v1.5.2PL0 Copyright (c) Steve Scherf et al.
# Submitted via: CDex 1.70beta2
#
DISCID=a809b00e
DTITLE=Muddy Waters - Blues Legend CD2
DYEAR=1994
DGENRE=Blues
TTITLE0=I Feel Like Going Home
TTITLE1=Lousiana Blues
TTITLE2=Long Distance Call
TTITLE3=Honey Bee
TTITLE4=Still A Fool
TTITLE5=She Moves Me
TTITLE6=I'm Your Hoochie Coochie Man
TTITLE7=I'm Ready
TTITLE8=Sugar Sweet
TTITLE9=Trouble No More
TTITLE10=Forty Days and Forty Nights
TTITLE11=Don't Go No Farther
TTITLE12=Close To You
TTITLE13=Got My Mojo Working
EXTD=YEAR: 1994
EXTT0=
EXTT1=
EXTT2=
EXTT3=
EXTT4=
EXTT5=
EXTT6=
EXTT7=
EXTT8=
EXTT9=
EXTT10=
EXTT11=
EXTT12=
EXTT13=
PLAYORDER=
